<?xml version="1.0" encoding="utf-8"?>
<!-- Generator: Adobe Illustrator 27.1.1, SVG Export Plug-In . SVG Version: 6.00 Build 0)  -->
<svg version="1.1" id="Layer_1" xmlns="http://www.w3.org/2000/svg" xmlns:xlink="http://www.w3.org/1999/xlink" x="0px" y="0px"
	 viewBox="0 0 566.7 782.7" style="enable-background:new 0 0 566.7 782.7;" xml:space="preserve">
<g id="Path_20640" transform="translate(-1457.939 -108.282)">
	<path d="M1957.4,887.9c8.6,0,17-1.7,24.9-5c7.6-3.2,14.5-7.8,20.4-13.6c5.9-5.8,10.5-12.6,13.8-20.2c3.4-7.8,5.1-16.1,5.1-24.6
		V175.4c0-8.6-1.7-16.9-5.1-24.8c-3.3-7.6-7.9-14.5-13.9-20.3c-6-5.9-12.9-10.5-20.6-13.8c-8-3.4-16.4-5.1-25.1-5.1H1558
		c-16.1,0-31.6,6-43.5,16.8c-11.9,10.7-19.3,25.3-20.8,41c-0.2,2.1-0.3,4.2-0.3,6.3l0,623.7c0,0.2,0,0.3,0,0.4c0,0,0,0,0,0.1v33.8
		l0,0v15.4c0,5.1-0.8,10.1-2.4,14.9c-1.6,4.7-3.9,9.1-6.8,13.1c-3,4-6.5,7.4-10.6,10.3c-0.4,0.3-0.9,0.6-1.3,0.9
		c7.6-0.4,13.6-1.5,17.5-2.5c9.6-2.4,17.5-6.3,23.7-11.7l2-1.7l2.1,1.7c1.4,1.1,2.9,2.3,4.5,3.3c0,0,0.1,0.1,0.2,0.1
		c0.1,0.1,0.3,0.2,0.4,0.3c1.6,1,3.1,1.9,4.6,2.8l0,0c0.2,0.1,0.3,0.2,0.5,0.3c0.1,0.1,0.3,0.1,0.4,0.2l0,0c1.6,0.8,3,1.5,4.5,2.1
		l0,0c0.3,0.1,0.5,0.2,0.8,0.3c0.1,0,0.2,0.1,0.3,0.1c1.5,0.6,3.1,1.2,4.6,1.7c0.4,0.1,0.8,0.2,1.2,0.4c1.6,0.5,3.2,0.9,4.9,1.3
		c0.2,0,0.4,0.1,0.5,0.1c0.2,0,0.4,0.1,0.5,0.1c1.7,0.3,3.6,0.6,5.5,0.8c0.2,0,0.3,0,0.5,0.1c0.1,0,0.2,0,0.2,0
		c2.3,0.2,4.3,0.3,6.2,0.3H1957.4 M1957.4,891h-399.5c-2.2,0-4.4-0.1-6.6-0.3c-0.2,0-0.5-0.1-0.7-0.1c-1.9-0.2-3.9-0.5-5.8-0.9
		c-0.4-0.1-0.7-0.2-1.1-0.2c-1.8-0.4-3.5-0.8-5.2-1.3c-0.4-0.1-0.8-0.2-1.2-0.4c-1.7-0.5-3.3-1.1-4.9-1.8c-0.4-0.2-0.8-0.3-1.2-0.5
		c-1.6-0.7-3.2-1.4-4.7-2.2c-0.3-0.2-0.7-0.3-1-0.5c-1.6-0.9-3.2-1.9-4.8-2.9c-0.2-0.1-0.4-0.2-0.6-0.4c-1.6-1.1-3.2-2.3-4.8-3.5
		c-21.7,19.1-57.4,14.6-57.4,14.6c0.3-0.1,0.6-0.2,0.9-0.2c18.7-5.2,31.3-22.4,31.3-41.6v-30l0,0v-19.2c0-0.2,0-0.3,0-0.5V175.4
		c0-2.2,0.1-4.4,0.3-6.6c3.4-33.9,32.4-60.5,67.5-60.5h398.8c37.3,0,67.8,30.2,67.8,67.1v649.1C2024.7,861.1,1994.4,891,1957.4,891z
		"/>
</g>
</svg>
