<?xml version="1.0" encoding="utf-8"?>
<!-- Generator: Adobe Illustrator 26.5.0, SVG Export Plug-In . SVG Version: 6.00 Build 0)  -->
<svg version="1.1" id="Layer_1" xmlns="http://www.w3.org/2000/svg" xmlns:xlink="http://www.w3.org/1999/xlink" x="0px" y="0px"
	 viewBox="0 0 916.1 242.1" style="enable-background:new 0 0 916.1 242.1;" xml:space="preserve">
<style type="text/css">
	.st0{fill:none;}
</style>
<g id="speech_bubble" transform="translate(-1457.939 -388.282)">
	<path class="st0" d="M1458.6,629.9c13-3.7,21.9-15.5,21.8-29V580l0,0v-13.4c0-0.1,0-0.2,0-0.3V435.1c0-1.5,0.1-3.1,0.2-4.6
		c2.3-23.6,22.6-42.2,47.1-42.2h799c26,0,47.3,21.1,47.3,46.8V584c0,25.5-21.1,46.4-46.9,46.4h-799.5c-1.5,0-3.1-0.1-4.6-0.2
		c-0.2,0-0.3,0-0.5-0.1c-1.4-0.2-2.7-0.3-4-0.6c-0.3-0.1-0.5-0.1-0.8-0.2c-1.2-0.3-2.4-0.6-3.6-0.9c-0.3-0.1-0.6-0.2-0.8-0.3
		c-1.2-0.4-2.3-0.8-3.4-1.2c-0.3-0.1-0.6-0.2-0.8-0.3c-1.1-0.5-2.2-1-3.3-1.6c-0.2-0.1-0.5-0.2-0.7-0.4c-1.1-0.6-2.3-1.3-3.3-2
		c-0.1-0.1-0.3-0.2-0.4-0.3c-1.1-0.8-2.3-1.6-3.3-2.5c-15.2,13.3-40,10.2-40,10.2C1458.2,630,1458.4,630,1458.6,629.9z"/>
	<path d="M2327.1,628.4c6,0,11.9-1.2,17.5-3.5c5.3-2.2,10.2-5.5,14.3-9.6c4.1-4.1,7.4-8.8,9.7-14.1c2.4-5.5,3.5-11.3,3.5-17.2V435.1
		c0-6-1.2-11.9-3.6-17.4c-2.3-5.3-5.6-10.1-9.7-14.3c-4.2-4.1-9-7.4-14.4-9.6c-5.6-2.3-11.5-3.5-17.6-3.5h-799
		c-11.3,0-22.1,4.2-30.5,11.7c-8.3,7.5-13.5,17.7-14.6,28.7c-0.1,1.5-0.2,3-0.2,4.4l0,131.2c0,0.1,0,0.2,0,0.3c0,0,0,0,0,0v22.9l0,0
		v11.4c0,3.5-0.6,7-1.7,10.3c-1.1,3.3-2.7,6.3-4.7,9.1c-2.1,2.8-4.5,5.2-7.4,7.1c-0.5,0.3-1,0.7-1.5,1c5.6-0.2,10.1-1,12.9-1.8
		c6.7-1.7,12.3-4.4,16.6-8.2l1.3-1.1l1.3,1.1c1,0.8,2,1.6,3.2,2.3c0,0,0.1,0.1,0.1,0.1c0.1,0,0.2,0.1,0.3,0.2
		c1.1,0.7,2.2,1.4,3.2,1.9l0,0c0.1,0.1,0.2,0.1,0.4,0.2c0.1,0.1,0.2,0.1,0.3,0.2l0,0c1.1,0.6,2.1,1.1,3.1,1.5l0,0
		c0.2,0.1,0.4,0.2,0.6,0.2c0.1,0,0.1,0.1,0.2,0.1v0c1.1,0.4,2.2,0.8,3.3,1.2c0.3,0.1,0.5,0.2,0.8,0.3c1.1,0.3,2.2,0.6,3.5,0.9
		c0.1,0,0.3,0.1,0.4,0.1c0.1,0,0.3,0.1,0.4,0.1c1.2,0.2,2.5,0.4,3.8,0.6l0,0c0.1,0,0.2,0,0.3,0c0.1,0,0.1,0,0.2,0
		c1.6,0.2,3,0.2,4.4,0.2H2327.1 M2327.1,630.4h-799.5c-1.5,0-3.1-0.1-4.6-0.2c-0.2,0-0.3,0-0.5-0.1c-1.4-0.2-2.7-0.3-4-0.6
		c-0.3-0.1-0.5-0.1-0.8-0.2c-1.2-0.3-2.4-0.6-3.6-0.9c-0.3-0.1-0.6-0.2-0.8-0.3c-1.2-0.4-2.3-0.8-3.4-1.2c-0.3-0.1-0.6-0.2-0.8-0.3
		c-1.1-0.5-2.2-1-3.3-1.6c-0.2-0.1-0.5-0.2-0.7-0.4c-1.1-0.6-2.3-1.3-3.3-2c-0.1-0.1-0.3-0.2-0.4-0.3c-1.1-0.8-2.3-1.6-3.3-2.5
		c-15.2,13.3-40,10.2-40,10.2c0.2-0.1,0.4-0.1,0.6-0.2c13-3.6,21.8-15.6,21.8-29V580l0,0v-13.4c0-0.1,0-0.2,0-0.3V435.1
		c0-1.5,0.1-3.1,0.2-4.6c2.3-23.6,22.6-42.2,47.1-42.2h799c26,0,47.3,21.1,47.3,46.8V584C2374.1,609.5,2352.9,630.4,2327.1,630.4z"
		/>
</g>
</svg>
